# 3ds Max Wavefront OBJ Exporter v0.97b - (c)2007 guruware
# File Created: 22.01.2012 14:19:07

#
# object Box001
#

v  -10.000000 0.000000 -10.000000
v  -10.000000 0.000000 10.000000
v  10.000000 0.000000 -10.000000
v  10.000000 0.000000 10.000000
v  10.000000 -10.000000 -0.000000
v  -10.000000 -10.000000 -0.000000
# 6 vertices

vn 0.000000 1.000000 -0.000000
vn 0.000000 -0.707107 0.707107
vn 1.000000 0.000000 -0.000000
vn 0.000000 -0.707107 -0.707107
vn -1.000000 0.000000 -0.000000
# 5 vertex normals

vt 0.000000 1.000000 0.000000
vt 0.000000 0.000000 0.000000
vt 1.000000 1.000000 0.000000
vt 1.000000 0.000000 0.000000
# 4 texture coords

g Box001
s 2
f 1/1/1 2/2/1 3/3/1 
f 4/4/1 3/3/1 2/2/1 
s 8
f 4/4/2 2/2/2 5/3/2 
f 6/1/2 5/3/2 2/2/2 
s 16
f 3/4/3 4/2/3 5/3/3 
s 32
f 1/4/4 3/2/4 6/3/4 
f 5/1/4 6/3/4 3/2/4 
s 64
f 2/4/5 1/2/5 6/3/5 
# 8 faces

